<svg xmlns="http://www.w3.org/2000/svg" width="91" height="93" viewBox="0 0 91 93"><defs><style>.a{fill:#fff;}</style></defs><rect width="91" height="93"/><g transform="translate(8.628 3.92)"><path class="a" d="M0,2,9,0V42H0Z" transform="translate(4.173 14.558)"/><rect class="a" width="9" height="42" transform="matrix(-1, -0.017, 0.017, -1, 61.591, 78.247)"/><rect class="a" width="9" height="42" transform="translate(49.173 47.558) rotate(90)"/><path class="a" d="M-11-15.5,2-.5,8.5,45l-9,5.5Z" transform="translate(55.173 16.558) rotate(90)"/><rect class="a" width="9" height="42" transform="matrix(0.017, -1, 1, 0.017, 17.173, 44.467)"/><rect class="a" width="9" height="42" transform="translate(27.554 47.558) rotate(41)"/><path class="a" d="M0,0H9V42L1.441,52.24Z" transform="translate(38.789 44.844) rotate(-138)"/></g></svg>